<svg width="137" height="37" viewBox="0 0 137 37" fill="none" xmlns="http://www.w3.org/2000/svg">
<path d="M53.272 34.32C53.272 35.328 54.088 36.144 55.096 36.144C56.104 36.144 56.92 35.328 56.92 34.32V20.784C56.92 19.776 56.104 18.96 55.096 18.96H55.048C54.544 18.96 54.016 19.08 53.32 19.272L50.944 19.968C50.2 20.184 49.72 20.808 49.72 21.552C49.72 22.416 50.464 23.136 51.328 23.136C51.52 23.136 51.784 23.088 51.976 23.04L53.272 22.704V34.32ZM64.789 34.752C65.125 35.688 65.821 36.264 66.709 36.264H67.093C67.981 36.264 68.653 35.712 68.989 34.752L72.301 25.128L75.613 34.752C75.949 35.712 76.621 36.264 77.509 36.264H77.893C78.781 36.264 79.477 35.688 79.813 34.752L84.517 21.552C84.589 21.336 84.661 21.048 84.661 20.832C84.661 19.824 83.845 19.056 82.837 19.056C81.925 19.056 81.301 19.656 81.061 20.376L77.725 30.672L74.365 20.472C74.077 19.584 73.429 19.008 72.493 19.008H72.205C71.269 19.008 70.621 19.608 70.333 20.472L66.973 30.672L63.637 20.376C63.397 19.608 62.701 19.056 61.837 19.056C60.805 19.056 59.941 19.824 59.941 20.856C59.941 21.072 60.013 21.336 60.085 21.552L64.789 34.752ZM89.6706 36.24C91.4466 36.24 92.6706 35.592 93.5586 34.608V34.632C93.5586 35.4 94.2546 36.144 95.3106 36.144C96.2946 36.144 97.0866 35.376 97.0866 34.392V28.536C97.0866 26.808 96.6546 25.392 95.6946 24.432C94.7826 23.52 93.3426 22.992 91.3506 22.992C89.6466 22.992 88.3986 23.232 87.2466 23.664C86.6706 23.88 86.2626 24.432 86.2626 25.08C86.2626 25.92 86.9346 26.568 87.7746 26.568C87.9426 26.568 88.0866 26.544 88.3026 26.472C88.9986 26.256 89.8146 26.112 90.8226 26.112C92.6466 26.112 93.5826 26.952 93.5826 28.464V28.68C92.6706 28.368 91.7346 28.152 90.4386 28.152C87.3906 28.152 85.2546 29.448 85.2546 32.256V32.304C85.2546 34.848 87.2466 36.24 89.6706 36.24ZM90.7746 33.72C89.5986 33.72 88.7826 33.144 88.7826 32.16V32.112C88.7826 30.96 89.7426 30.336 91.3026 30.336C92.1906 30.336 93.0066 30.528 93.6306 30.816V31.464C93.6306 32.784 92.4786 33.72 90.7746 33.72ZM100.394 34.32C100.394 35.328 101.21 36.144 102.218 36.144C103.226 36.144 104.042 35.328 104.042 34.32V20.16C104.042 19.152 103.226 18.336 102.218 18.336C101.21 18.336 100.394 19.152 100.394 20.16V34.32ZM107.636 34.32C107.636 35.328 108.452 36.144 109.46 36.144C110.468 36.144 111.284 35.328 111.284 34.32V20.16C111.284 19.152 110.468 18.336 109.46 18.336C108.452 18.336 107.636 19.152 107.636 20.16V34.32ZM117.662 28.56C117.95 26.904 118.934 25.824 120.446 25.824C121.982 25.824 122.942 26.928 123.158 28.56H117.662ZM125.27 34.728C125.534 34.488 125.75 34.128 125.75 33.648C125.75 32.832 125.15 32.208 124.334 32.208C123.95 32.208 123.71 32.304 123.446 32.496C122.702 33.048 121.862 33.36 120.854 33.36C119.222 33.36 118.07 32.496 117.71 30.84H124.934C125.894 30.84 126.638 30.144 126.638 29.088C126.638 26.424 124.742 22.896 120.446 22.896C116.702 22.896 114.086 25.92 114.086 29.592V29.64C114.086 33.576 116.942 36.288 120.806 36.288C122.678 36.288 124.142 35.688 125.27 34.728ZM133.773 36.216C134.565 36.216 135.189 36.12 135.861 35.856C136.365 35.664 136.797 35.136 136.797 34.488C136.797 33.648 136.101 32.976 135.285 32.976C135.213 32.976 134.973 33 134.853 33C134.037 33 133.677 32.592 133.677 31.752V26.256H135.285C136.149 26.256 136.845 25.56 136.845 24.696C136.845 23.832 136.149 23.136 135.285 23.136H133.677V21.528C133.677 20.52 132.861 19.704 131.853 19.704C130.845 19.704 130.029 20.52 130.029 21.528V23.136H129.909C129.045 23.136 128.349 23.832 128.349 24.696C128.349 25.56 129.045 26.256 129.909 26.256H130.029V32.352C130.029 35.328 131.541 36.216 133.773 36.216Z" fill="url(#paint0_linear_0_1)"/>
<path d="M27.4556 0C23.2944 0 19.9113 3.39061 19.9113 7.55869V15.9431C19.1331 15.9819 18.3556 16.0206 17.4975 16.0206C16.6806 16.0206 15.8643 16.06 15.0837 16.0987V7.55869C15.0113 3.39061 11.5887 0.0387462 7.4275 0.116874C3.34437 0.15562 0.0774955 3.46874 0 7.55869V27.5543C0.0774955 31.7249 3.5 35.0768 7.66125 34.9987C9.62315 34.9636 11.4947 34.1675 12.8805 32.7785C14.2664 31.3895 15.0582 29.5162 15.0887 27.5543V19.1749C15.8669 19.1362 16.6444 19.0975 17.5025 19.0975C18.3194 19.0975 19.1357 19.0581 19.9163 19.0193V27.5543C19.9938 31.7249 23.4163 35.0768 27.5776 34.9987C29.5386 34.9623 31.4088 34.1657 32.7936 32.7768C34.1784 31.3879 34.9695 29.5153 35 27.5543V7.55869C35 3.39061 31.6169 0 27.4556 0ZM7.54437 3.07874C9.99437 3.07874 11.9775 5.06687 12.0169 7.52503V16.3693C9.8052 16.686 7.64687 17.3021 5.60127 18.2006C4.71655 18.5952 3.88124 19.0923 3.11252 19.6818V7.55869C3.11252 5.06687 5.09437 3.07874 7.54437 3.07874ZM12.0169 27.5156C12.0181 28.7029 11.5475 29.8421 10.7088 30.6826C9.87005 31.5231 8.73179 31.9961 7.54437 31.9974C5.09437 31.9974 3.11252 30.0099 3.11252 27.5156V25.5281C3.11252 23.7743 4.50998 22.0593 6.84564 21.0462C8.50688 20.3459 10.2421 19.8359 12.0181 19.5262L12.0169 27.5156ZM27.4556 31.9974C25.0056 31.9974 23.0225 30.0099 22.9831 27.5543V18.6687C25.1948 18.3515 27.353 17.7352 29.3987 16.8368C30.2836 16.4425 31.1189 15.9453 31.8875 15.3556V27.5156C31.8875 30.0099 29.9056 31.9974 27.4556 31.9974ZM28.1544 14.0306C26.493 14.7306 24.7578 15.2406 22.9818 15.5506V7.55869C22.9807 6.37126 23.4512 5.23198 24.2899 4.39138C25.1286 3.55079 26.2669 3.07771 27.4544 3.0762C29.9056 3.07874 31.8875 5.06687 31.8875 7.55869V9.54619C31.8875 11.3025 30.49 12.9781 28.1556 14.0306H28.1544Z" fill="url(#paint1_linear_0_1)"/>
<defs>
<linearGradient id="paint0_linear_0_1" x1="54.6517" y1="39.4873" x2="65.2225" y2="0.372065" gradientUnits="userSpaceOnUse">
<stop stop-color="#00ADE8"/>
<stop offset="1" stop-color="#01E8A2"/>
</linearGradient>
<linearGradient id="paint1_linear_0_1" x1="2.2226" y1="32.7939" x2="32.8271" y2="2.25564" gradientUnits="userSpaceOnUse">
<stop stop-color="#00ADE8"/>
<stop offset="1" stop-color="#01E8A2"/>
</linearGradient>
</defs>
</svg>
