<svg width="170" height="34" viewBox="0 0 170 34" fill="none" xmlns="http://www.w3.org/2000/svg">
<path d="M26.232 0C22.292 0 19.0778 3.2142 18.9741 7.15419V15.1378C18.2484 15.1378 17.5226 15.2415 16.6931 15.2415C15.8636 15.2415 15.1378 15.2415 14.4121 15.3452V7.15419C14.4121 3.2142 11.0942 0 7.0505 0.103684C3.2142 0.103684 0.103684 3.31788 0 7.15419V26.232C0.103684 30.172 3.31788 33.3862 7.36155 33.2825C11.3015 33.1788 14.4121 30.0683 14.4121 26.232V18.2484C15.1378 18.2484 15.8636 18.1447 16.6931 18.1447C17.5226 18.1447 18.2484 18.1447 18.9741 18.041V26.1283C19.0778 30.0683 22.292 33.2825 26.3357 33.1788C30.2757 33.0751 33.3862 29.9646 33.3862 26.1283V7.15419C33.3862 3.2142 30.172 0 26.232 0ZM7.25787 2.90315C9.6426 2.90315 11.5089 4.76946 11.5089 7.15419V15.5526C9.43523 15.8636 7.36155 16.4857 5.39156 17.3152C4.56209 17.7299 3.73262 18.1447 3.00683 18.7668V7.15419C3.00683 4.87314 4.87314 2.90315 7.25787 2.90315ZM11.5089 26.232C11.5089 28.6167 9.6426 30.483 7.25787 30.483C4.87314 30.483 3.00683 28.6167 3.00683 26.232V24.3657C3.00683 22.7068 4.35472 21.0478 6.63577 20.1147C8.19102 19.3889 9.84997 18.9741 11.6126 18.6631L11.5089 26.232ZM26.232 30.483C23.8473 30.483 21.981 28.6167 21.981 26.232V17.8336C24.0547 17.5226 26.1283 16.9005 28.0983 16.071C28.9278 15.6563 29.7573 15.2415 30.4831 14.6194V26.232C30.4831 28.6167 28.5131 30.483 26.232 30.483ZM26.8541 13.3752C25.2989 14.101 23.6399 14.5157 21.8773 14.8268V7.15419C21.8773 4.76946 23.7436 2.90315 26.1283 2.90315C28.5131 2.90315 30.3794 4.76946 30.3794 7.15419V9.02049C30.4831 10.7831 29.1352 12.3384 26.8541 13.3752Z" fill="url(#paint0_linear)"/>
<path d="M129.812 11.5083C125.354 11.5083 121.621 15.1372 121.725 19.6993C121.725 24.1577 125.354 27.8903 129.916 27.7867C134.374 27.7867 138.003 24.1577 138.003 19.5956C138.003 15.2409 134.374 11.5083 129.812 11.5083ZM135.307 19.6993C135.307 22.7062 132.819 25.1946 129.812 25.1946C126.805 25.1946 124.317 22.7062 124.317 19.6993C124.317 16.6925 126.805 14.2041 129.812 14.2041C132.923 14.2041 135.307 16.6925 135.307 19.6993Z" fill="white"/>
<path d="M80.8717 11.613C80.1459 11.613 79.5238 12.2351 79.5238 12.9609V13.6866C76.2059 10.6798 71.0217 10.8872 68.0149 14.2051C65.0081 17.523 65.2154 22.7071 68.5333 25.714C71.6438 28.6171 76.4133 28.6171 79.5238 25.714V26.4398C79.5238 27.1656 80.0422 27.7877 80.768 27.7877C81.4938 27.7877 82.1159 27.2692 82.1159 26.5434V26.4398V12.9609C82.2196 12.2351 81.5975 11.613 80.8717 11.613ZM79.5238 19.7003C79.5238 22.7071 77.0354 25.1956 74.0286 25.1956C71.0217 25.1956 68.5333 22.7071 68.5333 19.7003C68.5333 16.6935 71.0217 14.2051 74.0286 14.2051C77.1391 14.2051 79.5238 16.6935 79.5238 19.7003Z" fill="white"/>
<path d="M95.0801 12.8562C95.0801 13.582 94.458 14.2041 93.7322 14.2041H93.5248C90.518 14.2041 88.0296 16.6925 88.0296 19.6993C87.9259 20.0104 88.0296 24.1577 88.0296 26.6461C87.9259 27.3719 87.3038 27.8903 86.578 27.7867C85.9559 27.683 85.4375 27.0609 85.4375 26.4388V12.9599C85.4375 12.2341 86.0596 11.612 86.7854 11.612H86.8891C87.6149 11.7157 88.1333 12.2341 88.1333 12.9599V13.6857C89.5849 12.3378 91.5548 11.5083 93.6285 11.5083H93.8359C94.458 11.5083 95.0801 12.1304 95.0801 12.8562Z" fill="white"/>
<path d="M153.659 18.3516V26.4389C153.659 27.1647 153.037 27.7868 152.311 27.7868C151.585 27.7868 150.963 27.1647 150.963 26.4389V25.091V18.3516C150.963 16.0705 149.097 14.2042 146.816 14.2042C146.712 14.2042 146.608 14.2042 146.505 14.2042C144.327 14.3079 142.668 16.2779 142.668 18.4553V20.0105V24.9874V26.3352C142.668 27.061 142.046 27.6831 141.321 27.6831C140.595 27.6831 139.973 27.061 139.973 26.3352V12.96C139.973 12.2342 140.595 11.6121 141.321 11.6121C142.046 11.6121 142.668 12.2342 142.668 12.96V13.0637C143.705 12.2342 145.053 11.7158 146.505 11.6121C150.237 11.4048 153.452 14.3079 153.555 18.0405C153.659 18.1442 153.659 18.2479 153.659 18.3516Z" fill="white"/>
<path d="M63.3508 6.84288V26.5428C63.3508 27.2686 62.7287 27.8907 62.0029 27.8907C61.2771 27.8907 60.655 27.2686 60.655 26.5428V17.626H47.1761V26.5428C47.1761 27.2686 46.554 27.8907 45.8282 27.8907C45.1024 27.8907 44.584 27.2686 44.584 26.5428V6.84288C44.584 6.1171 45.2061 5.495 45.9319 5.495C46.6577 5.495 47.2798 6.1171 47.2798 6.84288V15.4486H60.8623V6.84288C60.8623 6.1171 61.4845 5.495 62.2102 5.495C62.7287 5.59868 63.3508 6.1171 63.3508 6.84288Z" fill="white"/>
<path d="M119.755 18.9738V26.4391C119.755 27.1648 119.133 27.7869 118.408 27.7869C117.682 27.7869 117.06 27.1648 117.06 26.4391V19.6996V17.937C117.06 15.8633 115.504 14.2044 113.431 14.2044C111.357 14.2044 109.698 15.7596 109.698 17.8333C109.698 17.937 109.698 17.937 109.698 18.0407V26.6464C109.698 27.3722 109.18 27.9943 108.454 27.9943C107.728 27.9943 107.106 27.4759 107.106 26.7501V26.6464V19.6996V17.937C107.106 15.8633 105.551 14.2044 103.477 14.2044C101.403 14.2044 99.7444 15.7596 99.7444 17.8333C99.7444 17.937 99.7444 17.937 99.7444 18.0407V26.6464C99.7444 27.3722 99.226 27.9943 98.5002 27.9943C97.7744 27.9943 97.1523 27.4759 97.1523 26.7501V26.6464V13.1675C97.1523 12.4417 97.7744 11.8196 98.5002 11.8196C99.1223 11.8196 99.7444 12.3381 99.8481 12.9602C102.648 10.9902 106.484 11.5086 108.558 14.2044C110.631 11.4049 114.675 10.8865 117.371 13.0638C118.926 14.308 119.859 16.1744 119.859 18.1443L119.755 18.9738Z" fill="white"/>
<path d="M169.834 13.479L160.917 32.7642C160.502 33.3863 159.673 33.5937 159.051 33.179C158.532 32.8679 158.221 32.2458 158.429 31.6237L160.813 26.4395L154.903 13.479C154.489 12.8569 154.696 12.0275 155.318 11.6127C155.94 11.198 156.77 11.4054 157.184 12.0275C157.184 12.1311 157.288 12.2348 157.288 12.2348L162.369 23.1216L167.449 12.2348C167.656 11.509 168.486 11.198 169.108 11.4054C169.834 11.6127 170.145 12.4422 169.937 13.0643C169.937 13.3753 169.834 13.479 169.834 13.479Z" fill="white"/>
<defs>
<linearGradient id="paint0_linear" x1="16.6931" y1="0" x2="-6.32521" y2="23.0183" gradientUnits="userSpaceOnUse">
<stop stop-color="#00E8A2"/>
<stop offset="1" stop-color="#00ADE8"/>
</linearGradient>
</defs>
</svg>
