<svg width="20" height="19" viewBox="0 0 20 19" fill="#4F5963" xmlns="http://www.w3.org/2000/svg">
<path d="M18.5714 2.85714H15.7143V0H2.14286C1.57474 0.000648172 1.03007 0.226621 0.628344 0.628344C0.226621 1.03007 0.000648172 1.57474 0 2.14286V16.4286C0.000216354 16.9968 0.226051 17.5417 0.627867 17.9436C1.02968 18.3454 1.5746 18.5712 2.14286 18.5714H18.5714C18.9503 18.5714 19.3137 18.4209 19.5816 18.153C19.8495 17.8851 20 17.5217 20 17.1429V4.28571C20 3.90683 19.8495 3.54347 19.5816 3.27556C19.3137 3.00765 18.9503 2.85714 18.5714 2.85714V2.85714ZM2.14286 2.85714C1.95342 2.85714 1.77174 2.78189 1.63778 2.64793C1.50383 2.51398 1.42857 2.3323 1.42857 2.14286C1.42857 1.95342 1.50383 1.77174 1.63778 1.63778C1.77174 1.50383 1.95342 1.42857 2.14286 1.42857H14.2857V2.85714H2.14286ZM18.5714 12.8571H15C14.4317 12.8571 13.8866 12.6314 13.4848 12.2295C13.0829 11.8277 12.8571 11.2826 12.8571 10.7143C12.8571 10.146 13.0829 9.60092 13.4848 9.19906C13.8866 8.79719 14.4317 8.57143 15 8.57143H18.5714V12.8571Z" />
<path d="M15.7142 10.7143C15.7142 10.8556 15.6723 10.9937 15.5938 11.1111C15.5153 11.2286 15.4038 11.3202 15.2733 11.3742C15.1427 11.4283 14.9991 11.4424 14.8606 11.4149C14.722 11.3873 14.5947 11.3193 14.4949 11.2194C14.395 11.1195 14.3269 10.9922 14.2994 10.8537C14.2718 10.7151 14.286 10.5715 14.34 10.4409C14.3941 10.3104 14.4856 10.1989 14.6031 10.1204C14.7206 10.0419 14.8587 10 14.9999 10C15.1893 10.0001 15.3709 10.0754 15.5049 10.2093C15.6388 10.3433 15.7141 10.5249 15.7142 10.7143Z" />
</svg>
