<svg width="20" height="21" viewBox="0 0 20 21" fill="#4F5963" xmlns="http://www.w3.org/2000/svg">
<path d="M20 2.86089H13.4984C13.3339 2.0544 12.8958 1.32951 12.2582 0.808893C11.6207 0.288276 10.8229 0.00390625 9.9998 0.00390625C9.1767 0.00390625 8.37888 0.288276 7.74135 0.808893C7.10382 1.32951 6.66573 2.0544 6.50122 2.86089H0V4.28946H2.41429C1.53388 6.08252 0 9.39517 0 10.718C0 11.6652 0.376274 12.5736 1.04605 13.2434C1.71582 13.9132 2.62423 14.2895 3.57143 14.2895C4.51863 14.2895 5.42704 13.9132 6.09681 13.2434C6.76658 12.5736 7.14286 11.6652 7.14286 10.718C7.14286 9.39517 5.60857 6.08252 4.72857 4.28946H6.50163C6.6171 4.84976 6.86534 5.37416 7.22551 5.81863C7.58567 6.2631 8.04723 6.61465 8.57143 6.84374V17.1466C8.57143 17.5255 8.42092 17.8888 8.15301 18.1568C7.8851 18.4247 7.52174 18.5752 7.14286 18.5752H5.71429V20.0037H14.2857V18.5752H12.8571C12.4783 18.5752 12.1149 18.4247 11.847 18.1568C11.5791 17.8888 11.4286 17.5255 11.4286 17.1466V6.84374C11.9527 6.61453 12.4142 6.26295 12.7743 5.8185C13.1345 5.37405 13.3828 4.84971 13.4984 4.28946H15.271C14.391 6.08252 12.8571 9.39517 12.8571 10.718C12.8571 11.6652 13.2334 12.5736 13.9032 13.2434C14.573 13.9132 15.4814 14.2895 16.4286 14.2895C17.3758 14.2895 18.2842 13.9132 18.954 13.2434C19.6237 12.5736 20 11.6652 20 10.718C20 9.39517 18.4657 6.08252 17.5857 4.28946H20V2.86089ZM5.58286 11.4323H1.56C1.47542 11.2036 1.43096 10.9619 1.42857 10.718C1.42857 9.88089 2.56857 7.25354 3.57143 5.17925C4.57429 7.25354 5.71429 9.8813 5.71429 10.718C5.7119 10.9619 5.66744 11.2036 5.58286 11.4323ZM10 5.00374C9.71745 5.00374 9.44126 4.91996 9.20633 4.76299C8.9714 4.60601 8.7883 4.3829 8.68017 4.12186C8.57205 3.86083 8.54376 3.57359 8.59888 3.29647C8.654 3.01936 8.79006 2.76481 8.98985 2.56502C9.18964 2.36523 9.44418 2.22917 9.7213 2.17405C9.99841 2.11893 10.2857 2.14722 10.5467 2.25534C10.8077 2.36347 11.0308 2.54657 11.1878 2.7815C11.3448 3.01643 11.4286 3.29263 11.4286 3.57517C11.4286 3.95405 11.2781 4.31742 11.0102 4.58533C10.7422 4.85323 10.3789 5.00374 10 5.00374ZM18.44 11.4323H14.4171C14.3326 11.2036 14.2881 10.9619 14.2857 10.718C14.2857 9.88089 15.4257 7.25354 16.4286 5.17925C17.4314 7.25354 18.5714 9.8813 18.5714 10.718C18.569 10.9619 18.5246 11.2036 18.44 11.4323Z" />
</svg>
