<svg width="20" height="20" viewBox="0 0 20 20" fill="#4F5963" xmlns="http://www.w3.org/2000/svg">
<path d="M10 0C4.48615 0 0 4.48615 0 10C0 15.5138 4.48615 20 10 20C15.5138 20 20 15.5138 20 10C20 4.48615 15.5138 0 10 0ZM8.23077 13.8462C7.95925 12.8407 7.79526 11.8093 7.74154 10.7692H12.2585C12.2043 11.8093 12.0403 12.8406 11.7692 13.8462H8.23077ZM11.2637 15.3846C10.9245 16.2533 10.5015 17.087 10.0009 17.8738C9.50027 17.0868 9.07705 16.2532 8.73714 15.3846H11.2637ZM1.5767 10.7692H6.2044C6.24985 11.8062 6.39365 12.8364 6.63385 13.8462H2.47209C1.97905 12.8874 1.67507 11.8428 1.5767 10.7692ZM11.7692 6.15385C12.0407 7.15928 12.2047 8.1907 12.2585 9.23077H7.74154C7.79568 8.19075 7.95967 7.15937 8.23077 6.15385H11.7692ZM8.73626 4.61538C9.07653 3.74696 9.49974 2.91336 10 2.12615C10.5003 2.91328 10.9233 3.7469 11.2633 4.61538H8.73626ZM6.20484 9.23077H1.57714C1.67528 8.15715 1.97928 7.11249 2.47253 6.15385H6.63429C6.39387 7.16355 6.25007 8.19383 6.20484 9.23077ZM13.7956 10.7692H18.422C18.324 11.8429 18.02 12.8876 17.5266 13.8462H13.3648C13.6074 12.8368 13.7517 11.8064 13.7956 10.7692ZM13.7956 9.23077C13.7503 8.19386 13.6066 7.1636 13.3666 6.15385H17.5279C18.0212 7.11249 18.3252 8.15715 18.4233 9.23077H13.7956ZM16.5209 4.61538H12.902C12.5441 3.59451 12.0837 2.6125 11.5279 1.6844C13.4858 2.04273 15.2543 3.08071 16.5218 4.61538H16.5209ZM8.47253 1.68308C7.91697 2.61177 7.45661 3.59419 7.09846 4.61538H3.47868C4.74647 3.08086 6.51477 2.04254 8.47253 1.68308ZM3.47868 15.3846H7.0989C7.45689 16.4058 7.91711 17.3882 8.47253 18.3169C6.51503 17.9567 4.74696 16.9186 3.47868 15.3846ZM11.5279 18.3152C12.0841 17.3874 12.5445 16.4055 12.902 15.3846H16.5218C15.2537 16.9185 13.4854 17.9562 11.5279 18.3152Z" />
</svg>
