<svg width="20" height="21" viewBox="0 0 20 21" fill="#4F5963" xmlns="http://www.w3.org/2000/svg">
<path d="M6.155 17.1653H4.6163C3.48265 17.1654 2.38862 16.704 1.54276 15.8691C0.696902 15.0343 0.158359 13.8843 0.0297927 12.6385C-0.0987741 11.3927 0.191626 10.138 0.845636 9.11382C1.49965 8.08959 2.47153 7.36738 3.57603 7.08485C3.86221 5.37441 4.68083 3.8288 5.88979 2.71633C7.09876 1.60385 8.62174 0.994751 10.1944 0.994751C11.767 0.994751 13.29 1.60385 14.4989 2.71633C15.7079 3.8288 16.5265 5.37441 16.8127 7.08485C17.5134 7.26438 18.1665 7.62256 18.7199 8.13082C19.2733 8.63907 19.7117 9.28334 20 10.0122L18.5904 10.6948C18.37 10.1378 18.0186 9.65627 17.5729 9.30031C17.1272 8.94434 16.6034 8.72694 16.056 8.67071L15.4196 8.60567L15.3603 7.9024C15.2392 6.47881 14.6424 5.15637 13.6865 4.1938C12.7305 3.23122 11.4843 2.69775 10.1916 2.69775C8.8989 2.69775 7.65269 3.23122 6.69677 4.1938C5.74085 5.15637 5.14399 6.47881 5.02296 7.9024L4.96416 8.60628L4.32779 8.67071C3.54049 8.75327 2.81213 9.16792 2.29385 9.82863C1.77556 10.4893 1.50713 11.3454 1.54424 12.2192C1.58135 13.093 1.92116 13.9174 2.49317 14.5215C3.06517 15.1255 3.82546 15.4628 4.6163 15.4634H6.155V17.1653Z" />
<path d="M14.618 20.9947C13.6351 20.9963 12.6757 20.6629 11.8703 20.0398L12.7496 18.6417C13.2398 19.019 13.814 19.2406 14.41 19.2825C15.006 19.3244 15.6009 19.185 16.1304 18.8795C16.6598 18.5739 17.1035 18.1138 17.4133 17.5491C17.7231 16.9844 17.8872 16.3366 17.8877 15.6761C17.8877 13.6817 16.421 12.1658 14.618 12.1658C12.815 12.1658 11.3483 13.7614 11.3483 15.8888H9.80957C9.80957 12.9104 11.9665 10.4638 14.618 10.4638C17.2695 10.4638 19.4264 12.7961 19.4264 15.7296C19.4264 18.663 17.2695 20.9947 14.618 20.9947Z" />
<path d="M10.7701 17.9434L7.91797 14.7881L9.00605 13.5851L10.7701 15.5357L12.5341 13.5851L13.6221 14.7881L10.7701 17.9434Z" />
</svg>
