<svg width="20" height="20" viewBox="0 0 20 20" fill="#4F5963" xmlns="http://www.w3.org/2000/svg">
<path d="M12.8571 12.8571C12.8571 13.4222 12.6895 13.9746 12.3756 14.4445C12.0616 14.9143 11.6154 15.2805 11.0933 15.4968C10.5713 15.713 9.9968 15.7696 9.44257 15.6594C8.88833 15.5491 8.37924 15.277 7.97966 14.8774C7.58008 14.4779 7.30797 13.9688 7.19772 13.4145C7.08748 12.8603 7.14406 12.2858 7.36031 11.7638C7.57656 11.2417 7.94277 10.7955 8.41262 10.4815C8.88248 10.1676 9.43488 10 9.99997 10C10.7577 10 11.4845 10.301 12.0203 10.8368C12.5561 11.3727 12.8571 12.0994 12.8571 12.8571Z" />
<path d="M18.5714 5.71436H1.42857C1.05002 5.71543 0.687285 5.86629 0.419609 6.13396C0.151933 6.40164 0.00107696 6.76438 0 7.14293V18.5715C0.00107696 18.95 0.151933 19.3128 0.419609 19.5805C0.687285 19.8481 1.05002 19.999 1.42857 20.0001H18.5714C18.95 19.999 19.3127 19.8481 19.5804 19.5805C19.8481 19.3128 19.9989 18.95 20 18.5715V7.14293C19.9989 6.76438 19.8481 6.40164 19.5804 6.13396C19.3127 5.86629 18.95 5.71543 18.5714 5.71436ZM18.5714 15.7144C17.8144 15.7166 17.0889 16.0184 16.5536 16.5537C16.0183 17.089 15.7165 17.8144 15.7143 18.5715H4.28571C4.28345 17.8144 3.98171 17.089 3.44638 16.5537C2.91105 16.0184 2.18564 15.7166 1.42857 15.7144V10.0001C2.18564 9.99781 2.91105 9.69606 3.44638 9.16073C3.98171 8.62541 4.28345 7.89999 4.28571 7.14293H15.7143C15.7165 7.89999 16.0183 8.62541 16.5536 9.16073C17.0889 9.69606 17.8144 9.99781 18.5714 10.0001V15.7144Z" />
<path d="M2.85718 2.85693H17.1429V4.2855H2.85718V2.85693Z" />
<path d="M5.71436 0H14.2858V1.42857H5.71436V0Z" />
</svg>
