<svg width="19" height="22" viewBox="0 0 19 22" fill="#4F5963" xmlns="http://www.w3.org/2000/svg">
<path d="M17.9831 4.95233C17.9742 4.91391 17.9627 4.87613 17.9489 4.8392C17.9416 4.81935 17.9386 4.79889 17.9302 4.77903C17.9119 4.7385 17.8908 4.69929 17.867 4.66169C17.8592 4.64846 17.8532 4.63341 17.8448 4.62017C17.811 4.56991 17.7725 4.52296 17.7298 4.47997L13.5208 0.271502C13.3459 0.103098 13.112 0.0100088 12.8693 0.0122465C12.6266 0.0144841 12.3944 0.11187 12.2228 0.283468C12.0511 0.455067 11.9536 0.687176 11.9512 0.929897C11.9489 1.17262 12.0419 1.40657 12.2102 1.58146L14.8385 4.2092H1.12523C0.879465 4.2092 0.643766 4.30683 0.469985 4.48061C0.296203 4.65439 0.198573 4.89009 0.198573 5.13585C0.198573 5.38162 0.296203 5.61732 0.469985 5.7911C0.643766 5.96488 0.879465 6.06251 1.12523 6.06251H14.8385L12.2102 8.69025C12.0364 8.86404 11.9388 9.09975 11.9388 9.34553C11.9388 9.5913 12.0364 9.82702 12.2102 10.0008C12.384 10.1746 12.6197 10.2722 12.8655 10.2722C13.1113 10.2722 13.347 10.1746 13.5208 10.0008L17.7328 5.78873C17.7753 5.74582 17.8138 5.69909 17.8478 5.64913C17.8562 5.63589 17.8622 5.62084 17.87 5.60761C17.8938 5.57001 17.9149 5.5308 17.9332 5.49027C17.941 5.47041 17.9446 5.44935 17.9519 5.4301C17.9657 5.39338 17.9772 5.35579 17.9862 5.31757C18.011 5.19649 18.011 5.07161 17.9862 4.95052L17.9831 4.95233ZM16.8784 15.1913H3.16508L5.79281 12.563C5.96652 12.3892 6.06411 12.1536 6.06411 11.908C6.06411 11.6623 5.96652 11.4267 5.79281 11.253C5.6191 11.0793 5.38349 10.9817 5.13783 10.9817C4.89217 10.9817 4.65656 11.0793 4.48285 11.253L0.27078 15.4651C0.228298 15.5072 0.190009 15.5533 0.156453 15.6029C0.14863 15.6155 0.142613 15.63 0.135392 15.6426C0.110892 15.6809 0.0895607 15.7211 0.0716092 15.7629C0.0637868 15.7822 0.0601766 15.8026 0.0529559 15.8231C0.0393431 15.8606 0.0276938 15.8987 0.0180557 15.9374C-0.00601857 16.0584 -0.00601857 16.1829 0.0180557 16.3039C0.0271378 16.3425 0.0387974 16.3805 0.0529559 16.4176C0.0601766 16.4375 0.063185 16.4579 0.0716092 16.4778C0.0898231 16.5194 0.111144 16.5597 0.135392 16.5981C0.142613 16.6108 0.14863 16.6252 0.156453 16.6378C0.190417 16.6881 0.229103 16.7351 0.271984 16.778L4.48045 20.9871C4.65424 21.1609 4.88995 21.2585 5.13572 21.2585C5.3815 21.2585 5.61721 21.1609 5.791 20.9871C5.96479 20.8133 6.06243 20.5776 6.06243 20.3318C6.06243 20.0861 5.96479 19.8503 5.791 19.6766L3.16508 17.0446H16.8778C17.1235 17.0446 17.3592 16.947 17.533 16.7732C17.7068 16.5994 17.8044 16.3637 17.8044 16.118C17.8044 15.8722 17.7068 15.6365 17.533 15.4627C17.3592 15.2889 17.1235 15.1913 16.8778 15.1913H16.8784Z" />
</svg>
